PathFileType	3	(X/Y/Z)	D:\minhoCalibration\240510\subject3_KPNP\preferred\preferred08.trc
DataRate	CameraRate	NumFrames	NumMarkers	Units	OrigDataRate	OrigDataStartFrame	OrigNumFrames
200.0	200.0	15	10	mm	200.0	247	116	
Frame#	Time	Left_Ankle_Outer1			Left_Ankle_Inner1			Left_Knee_Outer1			Left_Knee_Inner1			Left_Wrist1			Right_Wrist1			Right_Knee_Inner1			Right_Knee_Outer1			Right_Ankle_Inner1			Right_Ankle_Outer1			
		X1	Y1	Z1	X2	Y2	Z2	X3	Y3	Z3	X4	Y4	Z4	X5	Y5	Z5	X6	Y6	Z6	X7	Y7	Z7	X8	Y8	Z8	X9	Y9	Z9	X10	Y10	Z10	
247	1.225	-258.56647	99.365372	-507.03156	-312.94199	113.77218	-516.53033	-177.88132	527.20148	-403.7518	-278.08368	532.50153	-387.24561	-85.045067	943.78796	-549.85516	-445.4523	1045.9904	-498.80936	-318.48819	905.35657	-109.89264	-428.65158	935.85559	-132.93706	-392.7114	603.40533	180.81461	-493.65335	621.51471	165.96249
248	1.23	-256.60858	96.977158	-507.62607	-310.94153	110.97956	-518.35089	-179.87662	525.12634	-403.51035	-280.35513	529.729	-390.06061	-84.711189	943.19415	-546.86694	-447.25687	1040.7312	-499.48959	-321.77084	895.57654	-111.35125	-432.83923	925.46539	-134.8575	-399.68558	578.14636	163.58418	-499.97195	595.62061	147.50177
249	1.235	-255.39449	94.538231	-508.22394	-309.5939	108.269	-519.94324	-181.9503	522.86652	-403.39789	-282.6254	526.89075	-392.98886	-84.426277	942.22668	-544.0517	-448.7435	1035.8767	-499.80844	-325.50146	885.56873	-112.77031	-436.86993	914.88361	-137.02354	-406.78796	553.57568	146.58028	-506.29407	571.16827	128.56502
250	1.24	-254.53865	91.90358	-508.90588	-308.6651	105.53351	-521.74518	-183.91457	520.5304	-403.51428	-284.82486	524.0014	-395.84915	-84.163307	940.72412	-541.39819	-450.13727	1030.0829	-501.16873	-329.8992	874.56873	-113.73038	-440.75311	904.08124	-139.41232	-412.52972	528.67987	127.26581	-511.97559	545.8219	107.9464
251	1.245	-254.55884	89.505005	-509.73618	-308.32919	102.74431	-523.18988	-185.95657	518.21881	-403.81686	-287.18292	521.06317	-398.69217	-84.10173	938.64166	-538.93011	-451.27136	1024.8734	-502.06512	-333.92752	863.04291	-115.47232	-444.46475	893.00067	-142.05788	-418.1828	504.78464	107.45568	-516.74951	521.69769	86.569809
252	1.25	-254.84586	87.04113	-510.84955	-308.6991	100.2998	-524.96722	-188.0394	515.72272	-404.3382	-289.0343	518.30408	-401.9303	-84.340797	935.80048	-536.39014	-452.39139	1019.3262	-502.77661	-338.14853	850.84784	-117.32088	-448.27686	881.56	-144.87781	-423.95169	481.80539	87.362526	-522.00885	498.72598	64.62825
253	1.255	-255.70453	84.590828	-511.89618	-309.58231	97.593773	-526.3526	-189.92575	513.44165	-405.00534	-291.37415	515.34149	-404.57437	-84.578995	932.59515	-533.89874	-453.30273	1014.2734	-503.7626	-341.84656	838.18054	-119.64487	-452.11133	869.90662	-147.82748	-428.52829	458.98633	65.799789	-527.30847	475.85571	41.587803
254	1.26	-257.00659	82.250397	-513.17639	-311.00827	94.951057	-527.70886	-191.78816	511.05701	-405.75204	-293.1875	512.54376	-407.22418	-84.871452	928.86902	-531.36646	-454.17661	1009.4522	-504.86349	-346.33676	824.99884	-121.7533	-456.12265	857.61871	-150.50984	-433.14444	437.08185	44.177826	-530.67334	453.53543	17.842648
255	1.265	-258.97775	79.832123	-514.46655	-312.89975	92.155205	-528.81909	-193.84317	508.62766	-406.56558	-295.02792	510.48654	-409.4758	-85.327782	924.66272	-528.7334	-454.91882	1004.5614	-505.93372	-350.6174	811.39764	-124.62889	-460.54019	844.75616	-153.87987	-437.41571	415.61572	21.678581	-535.0072	432.58441	-5.8552432
256	1.27	-261.69525	77.258865	-515.82483	-315.42233	89.620003	-529.92596	-195.6308	506.24466	-407.47427	-297.06375	508.04181	-411.85016	-85.631721	920.25244	-526.2038	-455.62729	999.91162	-507.1839	-355.72702	797.13214	-126.93797	-464.80902	831.8371	-157.33771	-441.16602	395.08197	-1.5637251	-537.70544	411.57907	-30.660789
257	1.275	-264.32928	74.737907	-517.35034	-318.01508	86.744301	-530.76575	-197.30629	503.98761	-408.35251	-298.72495	505.87006	-414.1496	-86.368622	915.63312	-523.58295	-456.37384	995.19281	-508.31628	-360.9368	782.47534	-129.93307	-468.92282	818.71661	-161.25249	-444.6554	375.13388	-25.149822	-540.54907	392.16055	-55.786873
258	1.28	-267.0759	72.138878	-518.59039	-320.58554	83.862114	-531.8797	-198.85703	501.62524	-409.22263	-300.65771	504.05557	-415.92117	-86.536308	911.24847	-521.37427	-457.12958	990.67316	-509.63943	-364.59186	767.81897	-134.12007	-473.58472	805.66199	-164.88045	-447.69574	356.31842	-49.24815	-543.26227	373.14624	-81.564148
259	1.285	-269.07742	69.718391	-519.9801	-322.92645	80.926254	-532.99585	-200.06573	499.23932	-410.2916	-302.11072	502.11023	-417.65323	-87.503731	906.578	-518.99628	-457.79697	985.95959	-510.9895	-369.94968	752.33936	-138.07846	-478.14874	791.5921	-169.47404	-450.25424	338.30835	-74.286842	-545.04376	355.85168	-107.69419
260	1.29	-270.67136	67.18882	-521.07709	-324.34708	78.14576	-534.55487	-201.30936	496.70895	-411.26782	-303.66064	499.97357	-419.28998	-89.046631	901.86133	-516.55945	-458.43475	981.50031	-512.29828	-374.74982	737.02399	-142.96545	-482.63986	778.03589	-174.28828	-452.07635	320.81595	-99.549797	-546.64844	339.28287	-133.89177
261	1.295	-271.72232	65.317917	-521.72052	-326.01248	75.677002	-534.84045	-202.226	494.30331	-412.07858	-306.06509	497.97192	-421.2699	-90.579781	897.4198	-514.39362	-459.08124	976.45551	-514.0705	-380.31079	721.29498	-147.44376	-487.92197	764.65912	-178.68413	-453.78946	304.34619	-125.25011	-547.86768	323.56595	-160.62473
